<?xml version="1.0" encoding="utf-8"?>
<svg xmlns="http://www.w3.org/2000/svg" xmlns:xlink="http://www.w3.org/1999/xlink" width="600" height="400" viewBox="0 0 2400 1600">
<defs>
  <clipPath id="clip370">
    <rect x="0" y="0" width="2400" height="1600"/>
  </clipPath>
</defs>
<path clip-path="url(#clip370)" d="
M0 1600 L2400 1600 L2400 0 L0 0  Z
  " fill="#ffffff" fill-rule="evenodd" fill-opacity="1"/>
<defs>
  <clipPath id="clip371">
    <rect x="480" y="0" width="1681" height="1600"/>
  </clipPath>
</defs>
<path clip-path="url(#clip370)" d="
M156.274 1486.45 L2352.76 1486.45 L2352.76 47.2441 L156.274 47.2441  Z
  " fill="#ffffff" fill-rule="evenodd" fill-opacity="1"/>
<defs>
  <clipPath id="clip372">
    <rect x="156" y="47" width="2197" height="1440"/>
  </clipPath>
</defs>
<polyline clip-path="url(#clip372)" style="stroke:#000000; stroke-linecap:butt; stroke-linejoin:round; stroke-width:2; stroke-opacity:0.1; fill:none" points="
  218.439,1486.45 218.439,47.2441 
  "/>
<polyline clip-path="url(#clip372)" style="stroke:#000000; stroke-linecap:butt; stroke-linejoin:round; stroke-width:2; stroke-opacity:0.1; fill:none" points="
  714.154,1486.45 714.154,47.2441 
  "/>
<polyline clip-path="url(#clip372)" style="stroke:#000000; stroke-linecap:butt; stroke-linejoin:round; stroke-width:2; stroke-opacity:0.1; fill:none" points="
  1209.87,1486.45 1209.87,47.2441 
  "/>
<polyline clip-path="url(#clip372)" style="stroke:#000000; stroke-linecap:butt; stroke-linejoin:round; stroke-width:2; stroke-opacity:0.1; fill:none" points="
  1705.58,1486.45 1705.58,47.2441 
  "/>
<polyline clip-path="url(#clip372)" style="stroke:#000000; stroke-linecap:butt; stroke-linejoin:round; stroke-width:2; stroke-opacity:0.1; fill:none" points="
  2201.3,1486.45 2201.3,47.2441 
  "/>
<polyline clip-path="url(#clip370)" style="stroke:#000000; stroke-linecap:butt; stroke-linejoin:round; stroke-width:4; stroke-opacity:1; fill:none" points="
  156.274,1486.45 2352.76,1486.45 
  "/>
<polyline clip-path="url(#clip370)" style="stroke:#000000; stroke-linecap:butt; stroke-linejoin:round; stroke-width:4; stroke-opacity:1; fill:none" points="
  218.439,1486.45 218.439,1467.55 
  "/>
<polyline clip-path="url(#clip370)" style="stroke:#000000; stroke-linecap:butt; stroke-linejoin:round; stroke-width:4; stroke-opacity:1; fill:none" points="
  714.154,1486.45 714.154,1467.55 
  "/>
<polyline clip-path="url(#clip370)" style="stroke:#000000; stroke-linecap:butt; stroke-linejoin:round; stroke-width:4; stroke-opacity:1; fill:none" points="
  1209.87,1486.45 1209.87,1467.55 
  "/>
<polyline clip-path="url(#clip370)" style="stroke:#000000; stroke-linecap:butt; stroke-linejoin:round; stroke-width:4; stroke-opacity:1; fill:none" points="
  1705.58,1486.45 1705.58,1467.55 
  "/>
<polyline clip-path="url(#clip370)" style="stroke:#000000; stroke-linecap:butt; stroke-linejoin:round; stroke-width:4; stroke-opacity:1; fill:none" points="
  2201.3,1486.45 2201.3,1467.55 
  "/>
<path clip-path="url(#clip370)" d="M195.823 1517.37 Q192.212 1517.37 190.383 1520.93 Q188.578 1524.47 188.578 1531.6 Q188.578 1538.71 190.383 1542.27 Q192.212 1545.82 195.823 1545.82 Q199.457 1545.82 201.263 1542.27 Q203.092 1538.71 203.092 1531.6 Q203.092 1524.47 201.263 1520.93 Q199.457 1517.37 195.823 1517.37 M195.823 1513.66 Q201.633 1513.66 204.689 1518.27 Q207.768 1522.85 207.768 1531.6 Q207.768 1540.33 204.689 1544.94 Q201.633 1549.52 195.823 1549.52 Q190.013 1549.52 186.934 1544.94 Q183.879 1540.33 183.879 1531.6 Q183.879 1522.85 186.934 1518.27 Q190.013 1513.66 195.823 1513.66 Z" fill="#000000" fill-rule="evenodd" fill-opacity="1" /><path clip-path="url(#clip370)" d="M215.985 1542.97 L220.869 1542.97 L220.869 1548.85 L215.985 1548.85 L215.985 1542.97 Z" fill="#000000" fill-rule="evenodd" fill-opacity="1" /><path clip-path="url(#clip370)" d="M241.054 1517.37 Q237.443 1517.37 235.615 1520.93 Q233.809 1524.47 233.809 1531.6 Q233.809 1538.71 235.615 1542.27 Q237.443 1545.82 241.054 1545.82 Q244.689 1545.82 246.494 1542.27 Q248.323 1538.71 248.323 1531.6 Q248.323 1524.47 246.494 1520.93 Q244.689 1517.37 241.054 1517.37 M241.054 1513.66 Q246.865 1513.66 249.92 1518.27 Q252.999 1522.85 252.999 1531.6 Q252.999 1540.33 249.92 1544.94 Q246.865 1549.52 241.054 1549.52 Q235.244 1549.52 232.166 1544.94 Q229.11 1540.33 229.11 1531.6 Q229.11 1522.85 232.166 1518.27 Q235.244 1513.66 241.054 1513.66 Z" fill="#000000" fill-rule="evenodd" fill-opacity="1" /><path clip-path="url(#clip370)" d="M692.337 1517.37 Q688.726 1517.37 686.897 1520.93 Q685.091 1524.47 685.091 1531.6 Q685.091 1538.71 686.897 1542.27 Q688.726 1545.82 692.337 1545.82 Q695.971 1545.82 697.776 1542.27 Q699.605 1538.71 699.605 1531.6 Q699.605 1524.47 697.776 1520.93 Q695.971 1517.37 692.337 1517.37 M692.337 1513.66 Q698.147 1513.66 701.202 1518.27 Q704.281 1522.85 704.281 1531.6 Q704.281 1540.33 701.202 1544.94 Q698.147 1549.52 692.337 1549.52 Q686.526 1549.52 683.448 1544.94 Q680.392 1540.33 680.392 1531.6 Q680.392 1522.85 683.448 1518.27 Q686.526 1513.66 692.337 1513.66 Z" fill="#000000" fill-rule="evenodd" fill-opacity="1" /><path clip-path="url(#clip370)" d="M712.499 1542.97 L717.383 1542.97 L717.383 1548.85 L712.499 1548.85 L712.499 1542.97 Z" fill="#000000" fill-rule="evenodd" fill-opacity="1" /><path clip-path="url(#clip370)" d="M731.596 1544.91 L747.915 1544.91 L747.915 1548.85 L725.971 1548.85 L725.971 1544.91 Q728.633 1542.16 733.216 1537.53 Q737.822 1532.88 739.003 1531.53 Q741.248 1529.01 742.128 1527.27 Q743.031 1525.51 743.031 1523.82 Q743.031 1521.07 741.086 1519.33 Q739.165 1517.6 736.063 1517.6 Q733.864 1517.6 731.41 1518.36 Q728.98 1519.13 726.202 1520.68 L726.202 1515.95 Q729.026 1514.82 731.48 1514.24 Q733.934 1513.66 735.971 1513.66 Q741.341 1513.66 744.535 1516.35 Q747.73 1519.03 747.73 1523.52 Q747.73 1525.65 746.92 1527.57 Q746.133 1529.47 744.026 1532.07 Q743.447 1532.74 740.346 1535.95 Q737.244 1539.15 731.596 1544.91 Z" fill="#000000" fill-rule="evenodd" fill-opacity="1" /><path clip-path="url(#clip370)" d="M1187.01 1517.37 Q1183.4 1517.37 1181.57 1520.93 Q1179.76 1524.47 1179.76 1531.6 Q1179.76 1538.71 1181.57 1542.27 Q1183.4 1545.82 1187.01 1545.82 Q1190.64 1545.82 1192.45 1542.27 Q1194.28 1538.71 1194.28 1531.6 Q1194.28 1524.47 1192.45 1520.93 Q1190.64 1517.37 1187.01 1517.37 M1187.01 1513.66 Q1192.82 1513.66 1195.88 1518.27 Q1198.95 1522.85 1198.95 1531.6 Q1198.95 1540.33 1195.88 1544.94 Q1192.82 1549.52 1187.01 1549.52 Q1181.2 1549.52 1178.12 1544.94 Q1175.07 1540.33 1175.07 1531.6 Q1175.07 1522.85 1178.12 1518.27 Q1181.2 1513.66 1187.01 1513.66 Z" fill="#000000" fill-rule="evenodd" fill-opacity="1" /><path clip-path="url(#clip370)" d="M1207.17 1542.97 L1212.06 1542.97 L1212.06 1548.85 L1207.17 1548.85 L1207.17 1542.97 Z" fill="#000000" fill-rule="evenodd" fill-opacity="1" /><path clip-path="url(#clip370)" d="M1235.09 1518.36 L1223.28 1536.81 L1235.09 1536.81 L1235.09 1518.36 M1233.86 1514.29 L1239.74 1514.29 L1239.74 1536.81 L1244.67 1536.81 L1244.67 1540.7 L1239.74 1540.7 L1239.74 1548.85 L1235.09 1548.85 L1235.09 1540.7 L1219.49 1540.7 L1219.49 1536.19 L1233.86 1514.29 Z" fill="#000000" fill-rule="evenodd" fill-opacity="1" /><path clip-path="url(#clip370)" d="M1682.89 1517.37 Q1679.28 1517.37 1677.45 1520.93 Q1675.64 1524.47 1675.64 1531.6 Q1675.64 1538.71 1677.45 1542.27 Q1679.28 1545.82 1682.89 1545.82 Q1686.52 1545.82 1688.33 1542.27 Q1690.16 1538.71 1690.16 1531.6 Q1690.16 1524.47 1688.33 1520.93 Q1686.52 1517.37 1682.89 1517.37 M1682.89 1513.66 Q1688.7 1513.66 1691.75 1518.27 Q1694.83 1522.85 1694.83 1531.6 Q1694.83 1540.33 1691.75 1544.94 Q1688.7 1549.52 1682.89 1549.52 Q1677.08 1549.52 1674 1544.94 Q1670.94 1540.33 1670.94 1531.6 Q1670.94 1522.85 1674 1518.27 Q1677.08 1513.66 1682.89 1513.66 Z" fill="#000000" fill-rule="evenodd" fill-opacity="1" /><path clip-path="url(#clip370)" d="M1703.05 1542.97 L1707.93 1542.97 L1707.93 1548.85 L1703.05 1548.85 L1703.05 1542.97 Z" fill="#000000" fill-rule="evenodd" fill-opacity="1" /><path clip-path="url(#clip370)" d="M1728.7 1529.7 Q1725.55 1529.7 1723.7 1531.86 Q1721.87 1534.01 1721.87 1537.76 Q1721.87 1541.49 1723.7 1543.66 Q1725.55 1545.82 1728.7 1545.82 Q1731.84 1545.82 1733.67 1543.66 Q1735.53 1541.49 1735.53 1537.76 Q1735.53 1534.01 1733.67 1531.86 Q1731.84 1529.7 1728.7 1529.7 M1737.98 1515.05 L1737.98 1519.31 Q1736.22 1518.48 1734.41 1518.04 Q1732.63 1517.6 1730.87 1517.6 Q1726.24 1517.6 1723.79 1520.72 Q1721.36 1523.85 1721.01 1530.17 Q1722.38 1528.15 1724.44 1527.09 Q1726.5 1526 1728.97 1526 Q1734.18 1526 1737.19 1529.17 Q1740.22 1532.32 1740.22 1537.76 Q1740.22 1543.08 1737.08 1546.3 Q1733.93 1549.52 1728.7 1549.52 Q1722.7 1549.52 1719.53 1544.94 Q1716.36 1540.33 1716.36 1531.6 Q1716.36 1523.41 1720.25 1518.55 Q1724.14 1513.66 1730.69 1513.66 Q1732.45 1513.66 1734.23 1514.01 Q1736.03 1514.36 1737.98 1515.05 Z" fill="#000000" fill-rule="evenodd" fill-opacity="1" /><path clip-path="url(#clip370)" d="M2178.73 1517.37 Q2175.12 1517.37 2173.29 1520.93 Q2171.48 1524.47 2171.48 1531.6 Q2171.48 1538.71 2173.29 1542.27 Q2175.12 1545.82 2178.73 1545.82 Q2182.36 1545.82 2184.17 1542.27 Q2186 1538.71 2186 1531.6 Q2186 1524.47 2184.17 1520.93 Q2182.36 1517.37 2178.73 1517.37 M2178.73 1513.66 Q2184.54 1513.66 2187.59 1518.27 Q2190.67 1522.85 2190.67 1531.6 Q2190.67 1540.33 2187.59 1544.94 Q2184.54 1549.52 2178.73 1549.52 Q2172.92 1549.52 2169.84 1544.94 Q2166.78 1540.33 2166.78 1531.6 Q2166.78 1522.85 2169.84 1518.27 Q2172.92 1513.66 2178.73 1513.66 Z" fill="#000000" fill-rule="evenodd" fill-opacity="1" /><path clip-path="url(#clip370)" d="M2198.89 1542.97 L2203.78 1542.97 L2203.78 1548.85 L2198.89 1548.85 L2198.89 1542.97 Z" fill="#000000" fill-rule="evenodd" fill-opacity="1" /><path clip-path="url(#clip370)" d="M2223.96 1532.44 Q2220.63 1532.44 2218.71 1534.22 Q2216.81 1536 2216.81 1539.13 Q2216.81 1542.25 2218.71 1544.03 Q2220.63 1545.82 2223.96 1545.82 Q2227.29 1545.82 2229.21 1544.03 Q2231.14 1542.23 2231.14 1539.13 Q2231.14 1536 2229.21 1534.22 Q2227.32 1532.44 2223.96 1532.44 M2219.28 1530.45 Q2216.28 1529.7 2214.59 1527.64 Q2212.92 1525.58 2212.92 1522.62 Q2212.92 1518.48 2215.86 1516.07 Q2218.82 1513.66 2223.96 1513.66 Q2229.12 1513.66 2232.06 1516.07 Q2235 1518.48 2235 1522.62 Q2235 1525.58 2233.31 1527.64 Q2231.65 1529.7 2228.66 1530.45 Q2232.04 1531.23 2233.91 1533.52 Q2235.81 1535.82 2235.81 1539.13 Q2235.81 1544.15 2232.73 1546.83 Q2229.68 1549.52 2223.96 1549.52 Q2218.24 1549.52 2215.16 1546.83 Q2212.11 1544.15 2212.11 1539.13 Q2212.11 1535.82 2214.01 1533.52 Q2215.9 1531.23 2219.28 1530.45 M2217.57 1523.06 Q2217.57 1525.75 2219.24 1527.25 Q2220.93 1528.76 2223.96 1528.76 Q2226.97 1528.76 2228.66 1527.25 Q2230.37 1525.75 2230.37 1523.06 Q2230.37 1520.38 2228.66 1518.87 Q2226.97 1517.37 2223.96 1517.37 Q2220.93 1517.37 2219.24 1518.87 Q2217.57 1520.38 2217.57 1523.06 Z" fill="#000000" fill-rule="evenodd" fill-opacity="1" /><polyline clip-path="url(#clip372)" style="stroke:#000000; stroke-linecap:butt; stroke-linejoin:round; stroke-width:2; stroke-opacity:0.1; fill:none" points="
  156.274,1291.35 2352.76,1291.35 
  "/>
<polyline clip-path="url(#clip372)" style="stroke:#000000; stroke-linecap:butt; stroke-linejoin:round; stroke-width:2; stroke-opacity:0.1; fill:none" points="
  156.274,990.508 2352.76,990.508 
  "/>
<polyline clip-path="url(#clip372)" style="stroke:#000000; stroke-linecap:butt; stroke-linejoin:round; stroke-width:2; stroke-opacity:0.1; fill:none" points="
  156.274,689.664 2352.76,689.664 
  "/>
<polyline clip-path="url(#clip372)" style="stroke:#000000; stroke-linecap:butt; stroke-linejoin:round; stroke-width:2; stroke-opacity:0.1; fill:none" points="
  156.274,388.82 2352.76,388.82 
  "/>
<polyline clip-path="url(#clip372)" style="stroke:#000000; stroke-linecap:butt; stroke-linejoin:round; stroke-width:2; stroke-opacity:0.1; fill:none" points="
  156.274,87.9763 2352.76,87.9763 
  "/>
<polyline clip-path="url(#clip370)" style="stroke:#000000; stroke-linecap:butt; stroke-linejoin:round; stroke-width:4; stroke-opacity:1; fill:none" points="
  156.274,1486.45 156.274,47.2441 
  "/>
<polyline clip-path="url(#clip370)" style="stroke:#000000; stroke-linecap:butt; stroke-linejoin:round; stroke-width:4; stroke-opacity:1; fill:none" points="
  156.274,1291.35 175.172,1291.35 
  "/>
<polyline clip-path="url(#clip370)" style="stroke:#000000; stroke-linecap:butt; stroke-linejoin:round; stroke-width:4; stroke-opacity:1; fill:none" points="
  156.274,990.508 175.172,990.508 
  "/>
<polyline clip-path="url(#clip370)" style="stroke:#000000; stroke-linecap:butt; stroke-linejoin:round; stroke-width:4; stroke-opacity:1; fill:none" points="
  156.274,689.664 175.172,689.664 
  "/>
<polyline clip-path="url(#clip370)" style="stroke:#000000; stroke-linecap:butt; stroke-linejoin:round; stroke-width:4; stroke-opacity:1; fill:none" points="
  156.274,388.82 175.172,388.82 
  "/>
<polyline clip-path="url(#clip370)" style="stroke:#000000; stroke-linecap:butt; stroke-linejoin:round; stroke-width:4; stroke-opacity:1; fill:none" points="
  156.274,87.9763 175.172,87.9763 
  "/>
<path clip-path="url(#clip370)" d="M62.9365 1277.15 Q59.3254 1277.15 57.4967 1280.72 Q55.6912 1284.26 55.6912 1291.39 Q55.6912 1298.49 57.4967 1302.06 Q59.3254 1305.6 62.9365 1305.6 Q66.5707 1305.6 68.3763 1302.06 Q70.205 1298.49 70.205 1291.39 Q70.205 1284.26 68.3763 1280.72 Q66.5707 1277.15 62.9365 1277.15 M62.9365 1273.45 Q68.7467 1273.45 71.8022 1278.05 Q74.8809 1282.64 74.8809 1291.39 Q74.8809 1300.11 71.8022 1304.72 Q68.7467 1309.3 62.9365 1309.3 Q57.1264 1309.3 54.0477 1304.72 Q50.9921 1300.11 50.9921 1291.39 Q50.9921 1282.64 54.0477 1278.05 Q57.1264 1273.45 62.9365 1273.45 Z" fill="#000000" fill-rule="evenodd" fill-opacity="1" /><path clip-path="url(#clip370)" d="M83.0984 1302.75 L87.9827 1302.75 L87.9827 1308.63 L83.0984 1308.63 L83.0984 1302.75 Z" fill="#000000" fill-rule="evenodd" fill-opacity="1" /><path clip-path="url(#clip370)" d="M108.746 1289.49 Q105.598 1289.49 103.746 1291.64 Q101.918 1293.79 101.918 1297.54 Q101.918 1301.27 103.746 1303.45 Q105.598 1305.6 108.746 1305.6 Q111.895 1305.6 113.723 1303.45 Q115.575 1301.27 115.575 1297.54 Q115.575 1293.79 113.723 1291.64 Q111.895 1289.49 108.746 1289.49 M118.029 1274.84 L118.029 1279.1 Q116.27 1278.26 114.464 1277.82 Q112.682 1277.38 110.922 1277.38 Q106.293 1277.38 103.839 1280.51 Q101.409 1283.63 101.061 1289.95 Q102.427 1287.94 104.487 1286.87 Q106.547 1285.79 109.024 1285.79 Q114.233 1285.79 117.242 1288.96 Q120.274 1292.1 120.274 1297.54 Q120.274 1302.87 117.126 1306.09 Q113.978 1309.3 108.746 1309.3 Q102.751 1309.3 99.5798 1304.72 Q96.4085 1300.11 96.4085 1291.39 Q96.4085 1283.19 100.297 1278.33 Q104.186 1273.45 110.737 1273.45 Q112.496 1273.45 114.279 1273.79 Q116.084 1274.14 118.029 1274.84 Z" fill="#000000" fill-rule="evenodd" fill-opacity="1" /><path clip-path="url(#clip370)" d="M64.0013 976.307 Q60.3902 976.307 58.5615 979.872 Q56.756 983.413 56.756 990.543 Q56.756 997.649 58.5615 1001.21 Q60.3902 1004.76 64.0013 1004.76 Q67.6356 1004.76 69.4411 1001.21 Q71.2698 997.649 71.2698 990.543 Q71.2698 983.413 69.4411 979.872 Q67.6356 976.307 64.0013 976.307 M64.0013 972.603 Q69.8115 972.603 72.867 977.21 Q75.9457 981.793 75.9457 990.543 Q75.9457 999.27 72.867 1003.88 Q69.8115 1008.46 64.0013 1008.46 Q58.1912 1008.46 55.1125 1003.88 Q52.0569 999.27 52.0569 990.543 Q52.0569 981.793 55.1125 977.21 Q58.1912 972.603 64.0013 972.603 Z" fill="#000000" fill-rule="evenodd" fill-opacity="1" /><path clip-path="url(#clip370)" d="M84.1632 1001.91 L89.0475 1001.91 L89.0475 1007.79 L84.1632 1007.79 L84.1632 1001.91 Z" fill="#000000" fill-rule="evenodd" fill-opacity="1" /><path clip-path="url(#clip370)" d="M98.0521 973.228 L120.274 973.228 L120.274 975.219 L107.728 1007.79 L102.844 1007.79 L114.649 977.163 L98.0521 977.163 L98.0521 973.228 Z" fill="#000000" fill-rule="evenodd" fill-opacity="1" /><path clip-path="url(#clip370)" d="M63.1911 675.463 Q59.58 675.463 57.7513 679.028 Q55.9458 682.569 55.9458 689.699 Q55.9458 696.805 57.7513 700.37 Q59.58 703.912 63.1911 703.912 Q66.8254 703.912 68.6309 700.37 Q70.4596 696.805 70.4596 689.699 Q70.4596 682.569 68.6309 679.028 Q66.8254 675.463 63.1911 675.463 M63.1911 671.759 Q69.0013 671.759 72.0568 676.366 Q75.1355 680.949 75.1355 689.699 Q75.1355 698.426 72.0568 703.032 Q69.0013 707.616 63.1911 707.616 Q57.381 707.616 54.3023 703.032 Q51.2468 698.426 51.2468 689.699 Q51.2468 680.949 54.3023 676.366 Q57.381 671.759 63.1911 671.759 Z" fill="#000000" fill-rule="evenodd" fill-opacity="1" /><path clip-path="url(#clip370)" d="M83.3531 701.065 L88.2373 701.065 L88.2373 706.944 L83.3531 706.944 L83.3531 701.065 Z" fill="#000000" fill-rule="evenodd" fill-opacity="1" /><path clip-path="url(#clip370)" d="M108.422 690.532 Q105.089 690.532 103.168 692.315 Q101.27 694.097 101.27 697.222 Q101.27 700.347 103.168 702.129 Q105.089 703.912 108.422 703.912 Q111.756 703.912 113.677 702.129 Q115.598 700.324 115.598 697.222 Q115.598 694.097 113.677 692.315 Q111.779 690.532 108.422 690.532 M103.746 688.542 Q100.737 687.801 99.0474 685.741 Q97.3808 683.68 97.3808 680.718 Q97.3808 676.574 100.321 674.167 Q103.284 671.759 108.422 671.759 Q113.584 671.759 116.524 674.167 Q119.464 676.574 119.464 680.718 Q119.464 683.68 117.774 685.741 Q116.108 687.801 113.121 688.542 Q116.501 689.329 118.376 691.62 Q120.274 693.912 120.274 697.222 Q120.274 702.245 117.195 704.93 Q114.14 707.616 108.422 707.616 Q102.705 707.616 99.6261 704.93 Q96.5706 702.245 96.5706 697.222 Q96.5706 693.912 98.4687 691.62 Q100.367 689.329 103.746 688.542 M102.034 681.157 Q102.034 683.843 103.7 685.347 Q105.39 686.852 108.422 686.852 Q111.432 686.852 113.121 685.347 Q114.834 683.843 114.834 681.157 Q114.834 678.472 113.121 676.968 Q111.432 675.463 108.422 675.463 Q105.39 675.463 103.7 676.968 Q102.034 678.472 102.034 681.157 Z" fill="#000000" fill-rule="evenodd" fill-opacity="1" /><path clip-path="url(#clip370)" d="M63.2837 374.619 Q59.6726 374.619 57.8439 378.184 Q56.0384 381.725 56.0384 388.855 Q56.0384 395.961 57.8439 399.526 Q59.6726 403.068 63.2837 403.068 Q66.918 403.068 68.7235 399.526 Q70.5522 395.961 70.5522 388.855 Q70.5522 381.725 68.7235 378.184 Q66.918 374.619 63.2837 374.619 M63.2837 370.915 Q69.0939 370.915 72.1494 375.522 Q75.2281 380.105 75.2281 388.855 Q75.2281 397.582 72.1494 402.188 Q69.0939 406.772 63.2837 406.772 Q57.4736 406.772 54.3949 402.188 Q51.3393 397.582 51.3393 388.855 Q51.3393 380.105 54.3949 375.522 Q57.4736 370.915 63.2837 370.915 Z" fill="#000000" fill-rule="evenodd" fill-opacity="1" /><path clip-path="url(#clip370)" d="M83.4457 400.221 L88.3299 400.221 L88.3299 406.1 L83.4457 406.1 L83.4457 400.221 Z" fill="#000000" fill-rule="evenodd" fill-opacity="1" /><path clip-path="url(#clip370)" d="M98.6539 405.383 L98.6539 401.123 Q100.413 401.957 102.219 402.397 Q104.024 402.836 105.76 402.836 Q110.39 402.836 112.82 399.735 Q115.274 396.61 115.621 390.267 Q114.279 392.258 112.219 393.323 Q110.158 394.387 107.658 394.387 Q102.473 394.387 99.4409 391.262 Q96.4317 388.114 96.4317 382.674 Q96.4317 377.35 99.5798 374.133 Q102.728 370.915 107.959 370.915 Q113.955 370.915 117.103 375.522 Q120.274 380.105 120.274 388.855 Q120.274 397.026 116.385 401.91 Q112.52 406.772 105.969 406.772 Q104.209 406.772 102.404 406.424 Q100.598 406.077 98.6539 405.383 M107.959 390.73 Q111.108 390.73 112.936 388.577 Q114.788 386.424 114.788 382.674 Q114.788 378.948 112.936 376.795 Q111.108 374.619 107.959 374.619 Q104.811 374.619 102.959 376.795 Q101.131 378.948 101.131 382.674 Q101.131 386.424 102.959 388.577 Q104.811 390.73 107.959 390.73 Z" fill="#000000" fill-rule="evenodd" fill-opacity="1" /><path clip-path="url(#clip370)" d="M53.9088 101.321 L61.5476 101.321 L61.5476 74.9555 L53.2375 76.6222 L53.2375 72.3629 L61.5013 70.6963 L66.1772 70.6963 L66.1772 101.321 L73.8161 101.321 L73.8161 105.256 L53.9088 105.256 L53.9088 101.321 Z" fill="#000000" fill-rule="evenodd" fill-opacity="1" /><path clip-path="url(#clip370)" d="M83.2605 99.3767 L88.1447 99.3767 L88.1447 105.256 L83.2605 105.256 L83.2605 99.3767 Z" fill="#000000" fill-rule="evenodd" fill-opacity="1" /><path clip-path="url(#clip370)" d="M108.33 73.775 Q104.719 73.775 102.89 77.3398 Q101.084 80.8814 101.084 88.011 Q101.084 95.1174 102.89 98.6822 Q104.719 102.224 108.33 102.224 Q111.964 102.224 113.77 98.6822 Q115.598 95.1174 115.598 88.011 Q115.598 80.8814 113.77 77.3398 Q111.964 73.775 108.33 73.775 M108.33 70.0713 Q114.14 70.0713 117.195 74.6777 Q120.274 79.261 120.274 88.011 Q120.274 96.7378 117.195 101.344 Q114.14 105.928 108.33 105.928 Q102.52 105.928 99.4409 101.344 Q96.3854 96.7378 96.3854 88.011 Q96.3854 79.261 99.4409 74.6777 Q102.52 70.0713 108.33 70.0713 Z" fill="#000000" fill-rule="evenodd" fill-opacity="1" /><polyline clip-path="url(#clip372)" style="stroke:#009af9; stroke-linecap:butt; stroke-linejoin:round; stroke-width:4; stroke-opacity:1; fill:none" points="
  218.439,87.9763 243.224,88.1267 268.007,88.5779 292.785,89.33 317.555,90.3827 342.316,91.736 367.064,93.3898 391.797,95.3439 416.513,97.5982 441.209,100.152 
  465.883,103.006 490.532,106.159 515.154,109.611 539.747,113.362 564.307,117.411 588.832,121.758 613.321,126.402 637.77,131.344 662.177,136.582 686.54,142.115 
  710.855,147.945 735.122,154.069 759.337,160.487 783.498,167.199 807.602,174.204 831.648,181.501 855.632,189.09 879.552,196.969 903.407,205.139 927.193,213.597 
  950.908,222.344 974.549,231.378 998.115,240.698 1021.6,250.305 1045.01,260.195 1068.34,270.37 1091.58,280.827 1114.73,291.565 1137.79,302.584 1160.76,313.883 
  1183.64,325.46 1206.42,337.313 1229.1,349.443 1251.68,361.847 1274.16,374.525 1296.53,387.475 1318.8,400.696 1340.95,414.187 1362.99,427.945 1384.92,441.971 
  1406.73,456.262 1428.42,470.817 1449.99,485.634 1471.44,500.713 1492.76,516.051 1513.96,531.647 1535.02,547.5 1555.96,563.608 1576.76,579.969 1597.42,596.581 
  1617.95,613.444 1638.33,630.554 1658.58,647.912 1678.68,665.514 1698.63,683.359 1718.44,701.446 1738.09,719.772 1757.6,738.336 1776.95,757.135 1796.14,776.169 
  1815.18,795.434 1834.06,814.93 1852.77,834.654 1871.32,854.604 1889.71,874.778 1907.93,895.174 1925.98,915.791 1943.86,936.625 1961.57,957.676 1979.1,978.94 
  1996.46,1000.42 2013.64,1022.1 2030.64,1043.99 2047.46,1066.09 2064.09,1088.39 2080.54,1110.9 2096.81,1133.6 2112.88,1156.49 2128.77,1179.59 2144.47,1202.87 
  2159.97,1226.34 2175.28,1250 2190.4,1273.84 2205.31,1297.87 2220.03,1322.07 2234.55,1346.46 2248.87,1371.02 2262.98,1395.75 2276.89,1420.65 2290.59,1445.72 
  
  "/>
<path clip-path="url(#clip370)" d="
M1983.06 198.898 L2279.54 198.898 L2279.54 95.2176 L1983.06 95.2176  Z
  " fill="#ffffff" fill-rule="evenodd" fill-opacity="1"/>
<polyline clip-path="url(#clip370)" style="stroke:#000000; stroke-linecap:butt; stroke-linejoin:round; stroke-width:4; stroke-opacity:1; fill:none" points="
  1983.06,198.898 2279.54,198.898 2279.54,95.2176 1983.06,95.2176 1983.06,198.898 
  "/>
<polyline clip-path="url(#clip370)" style="stroke:#009af9; stroke-linecap:butt; stroke-linejoin:round; stroke-width:4; stroke-opacity:1; fill:none" points="
  2007.46,147.058 2153.89,147.058 
  "/>
<path clip-path="url(#clip370)" d="M2192.14 166.745 Q2190.34 171.375 2188.62 172.787 Q2186.91 174.199 2184.04 174.199 L2180.64 174.199 L2180.64 170.634 L2183.14 170.634 Q2184.9 170.634 2185.87 169.8 Q2186.84 168.967 2188.02 165.865 L2188.78 163.921 L2178.3 138.412 L2182.81 138.412 L2190.91 158.689 L2199.02 138.412 L2203.53 138.412 L2192.14 166.745 Z" fill="#000000" fill-rule="evenodd" fill-opacity="1" /><path clip-path="url(#clip370)" d="M2210.82 160.402 L2218.46 160.402 L2218.46 134.037 L2210.15 135.703 L2210.15 131.444 L2218.41 129.778 L2223.09 129.778 L2223.09 160.402 L2230.73 160.402 L2230.73 164.338 L2210.82 164.338 L2210.82 160.402 Z" fill="#000000" fill-rule="evenodd" fill-opacity="1" /></svg>
