<?xml version="1.0" encoding="utf-8"?>
<svg xmlns="http://www.w3.org/2000/svg" xmlns:xlink="http://www.w3.org/1999/xlink" width="600" height="400" viewBox="0 0 2400 1600">
<defs>
  <clipPath id="clip630">
    <rect x="0" y="0" width="2400" height="1600"/>
  </clipPath>
</defs>
<path clip-path="url(#clip630)" d="
M0 1600 L2400 1600 L2400 0 L0 0  Z
  " fill="#ffffff" fill-rule="evenodd" fill-opacity="1"/>
<defs>
  <clipPath id="clip631">
    <rect x="480" y="0" width="1681" height="1600"/>
  </clipPath>
</defs>
<path clip-path="url(#clip630)" d="
M186.274 1486.45 L2352.76 1486.45 L2352.76 47.2441 L186.274 47.2441  Z
  " fill="#ffffff" fill-rule="evenodd" fill-opacity="1"/>
<defs>
  <clipPath id="clip632">
    <rect x="186" y="47" width="2167" height="1440"/>
  </clipPath>
</defs>
<polyline clip-path="url(#clip632)" style="stroke:#000000; stroke-linecap:butt; stroke-linejoin:round; stroke-width:2; stroke-opacity:0.1; fill:none" points="
  247.59,1486.45 247.59,47.2441 
  "/>
<polyline clip-path="url(#clip632)" style="stroke:#000000; stroke-linecap:butt; stroke-linejoin:round; stroke-width:2; stroke-opacity:0.1; fill:none" points="
  763.713,1486.45 763.713,47.2441 
  "/>
<polyline clip-path="url(#clip632)" style="stroke:#000000; stroke-linecap:butt; stroke-linejoin:round; stroke-width:2; stroke-opacity:0.1; fill:none" points="
  1279.84,1486.45 1279.84,47.2441 
  "/>
<polyline clip-path="url(#clip632)" style="stroke:#000000; stroke-linecap:butt; stroke-linejoin:round; stroke-width:2; stroke-opacity:0.1; fill:none" points="
  1795.96,1486.45 1795.96,47.2441 
  "/>
<polyline clip-path="url(#clip632)" style="stroke:#000000; stroke-linecap:butt; stroke-linejoin:round; stroke-width:2; stroke-opacity:0.1; fill:none" points="
  2312.09,1486.45 2312.09,47.2441 
  "/>
<polyline clip-path="url(#clip630)" style="stroke:#000000; stroke-linecap:butt; stroke-linejoin:round; stroke-width:4; stroke-opacity:1; fill:none" points="
  186.274,1486.45 2352.76,1486.45 
  "/>
<polyline clip-path="url(#clip630)" style="stroke:#000000; stroke-linecap:butt; stroke-linejoin:round; stroke-width:4; stroke-opacity:1; fill:none" points="
  247.59,1486.45 247.59,1467.55 
  "/>
<polyline clip-path="url(#clip630)" style="stroke:#000000; stroke-linecap:butt; stroke-linejoin:round; stroke-width:4; stroke-opacity:1; fill:none" points="
  763.713,1486.45 763.713,1467.55 
  "/>
<polyline clip-path="url(#clip630)" style="stroke:#000000; stroke-linecap:butt; stroke-linejoin:round; stroke-width:4; stroke-opacity:1; fill:none" points="
  1279.84,1486.45 1279.84,1467.55 
  "/>
<polyline clip-path="url(#clip630)" style="stroke:#000000; stroke-linecap:butt; stroke-linejoin:round; stroke-width:4; stroke-opacity:1; fill:none" points="
  1795.96,1486.45 1795.96,1467.55 
  "/>
<polyline clip-path="url(#clip630)" style="stroke:#000000; stroke-linecap:butt; stroke-linejoin:round; stroke-width:4; stroke-opacity:1; fill:none" points="
  2312.09,1486.45 2312.09,1467.55 
  "/>
<path clip-path="url(#clip630)" d="M209.893 1517.37 Q206.282 1517.37 204.453 1520.93 Q202.648 1524.47 202.648 1531.6 Q202.648 1538.71 204.453 1542.27 Q206.282 1545.82 209.893 1545.82 Q213.527 1545.82 215.333 1542.27 Q217.161 1538.71 217.161 1531.6 Q217.161 1524.47 215.333 1520.93 Q213.527 1517.37 209.893 1517.37 M209.893 1513.66 Q215.703 1513.66 218.759 1518.27 Q221.837 1522.85 221.837 1531.6 Q221.837 1540.33 218.759 1544.94 Q215.703 1549.52 209.893 1549.52 Q204.083 1549.52 201.004 1544.94 Q197.949 1540.33 197.949 1531.6 Q197.949 1522.85 201.004 1518.27 Q204.083 1513.66 209.893 1513.66 Z" fill="#000000" fill-rule="evenodd" fill-opacity="1" /><path clip-path="url(#clip630)" d="M230.055 1542.97 L234.939 1542.97 L234.939 1548.85 L230.055 1548.85 L230.055 1542.97 Z" fill="#000000" fill-rule="evenodd" fill-opacity="1" /><path clip-path="url(#clip630)" d="M255.124 1517.37 Q251.513 1517.37 249.684 1520.93 Q247.879 1524.47 247.879 1531.6 Q247.879 1538.71 249.684 1542.27 Q251.513 1545.82 255.124 1545.82 Q258.758 1545.82 260.564 1542.27 Q262.393 1538.71 262.393 1531.6 Q262.393 1524.47 260.564 1520.93 Q258.758 1517.37 255.124 1517.37 M255.124 1513.66 Q260.934 1513.66 263.99 1518.27 Q267.069 1522.85 267.069 1531.6 Q267.069 1540.33 263.99 1544.94 Q260.934 1549.52 255.124 1549.52 Q249.314 1549.52 246.235 1544.94 Q243.18 1540.33 243.18 1531.6 Q243.18 1522.85 246.235 1518.27 Q249.314 1513.66 255.124 1513.66 Z" fill="#000000" fill-rule="evenodd" fill-opacity="1" /><path clip-path="url(#clip630)" d="M285.286 1517.37 Q281.675 1517.37 279.846 1520.93 Q278.041 1524.47 278.041 1531.6 Q278.041 1538.71 279.846 1542.27 Q281.675 1545.82 285.286 1545.82 Q288.92 1545.82 290.726 1542.27 Q292.555 1538.71 292.555 1531.6 Q292.555 1524.47 290.726 1520.93 Q288.92 1517.37 285.286 1517.37 M285.286 1513.66 Q291.096 1513.66 294.152 1518.27 Q297.23 1522.85 297.23 1531.6 Q297.23 1540.33 294.152 1544.94 Q291.096 1549.52 285.286 1549.52 Q279.476 1549.52 276.397 1544.94 Q273.342 1540.33 273.342 1531.6 Q273.342 1522.85 276.397 1518.27 Q279.476 1513.66 285.286 1513.66 Z" fill="#000000" fill-rule="evenodd" fill-opacity="1" /><path clip-path="url(#clip630)" d="M726.515 1517.37 Q722.904 1517.37 721.075 1520.93 Q719.269 1524.47 719.269 1531.6 Q719.269 1538.71 721.075 1542.27 Q722.904 1545.82 726.515 1545.82 Q730.149 1545.82 731.954 1542.27 Q733.783 1538.71 733.783 1531.6 Q733.783 1524.47 731.954 1520.93 Q730.149 1517.37 726.515 1517.37 M726.515 1513.66 Q732.325 1513.66 735.38 1518.27 Q738.459 1522.85 738.459 1531.6 Q738.459 1540.33 735.38 1544.94 Q732.325 1549.52 726.515 1549.52 Q720.704 1549.52 717.626 1544.94 Q714.57 1540.33 714.57 1531.6 Q714.57 1522.85 717.626 1518.27 Q720.704 1513.66 726.515 1513.66 Z" fill="#000000" fill-rule="evenodd" fill-opacity="1" /><path clip-path="url(#clip630)" d="M746.677 1542.97 L751.561 1542.97 L751.561 1548.85 L746.677 1548.85 L746.677 1542.97 Z" fill="#000000" fill-rule="evenodd" fill-opacity="1" /><path clip-path="url(#clip630)" d="M765.774 1544.91 L782.093 1544.91 L782.093 1548.85 L760.149 1548.85 L760.149 1544.91 Q762.811 1542.16 767.394 1537.53 Q772 1532.88 773.181 1531.53 Q775.426 1529.01 776.306 1527.27 Q777.209 1525.51 777.209 1523.82 Q777.209 1521.07 775.264 1519.33 Q773.343 1517.6 770.241 1517.6 Q768.042 1517.6 765.588 1518.36 Q763.158 1519.13 760.38 1520.68 L760.38 1515.95 Q763.204 1514.82 765.658 1514.24 Q768.112 1513.66 770.149 1513.66 Q775.519 1513.66 778.713 1516.35 Q781.908 1519.03 781.908 1523.52 Q781.908 1525.65 781.098 1527.57 Q780.311 1529.47 778.204 1532.07 Q777.625 1532.74 774.524 1535.95 Q771.422 1539.15 765.774 1544.91 Z" fill="#000000" fill-rule="evenodd" fill-opacity="1" /><path clip-path="url(#clip630)" d="M791.954 1514.29 L810.31 1514.29 L810.31 1518.22 L796.236 1518.22 L796.236 1526.7 Q797.255 1526.35 798.273 1526.19 Q799.292 1526 800.311 1526 Q806.098 1526 809.477 1529.17 Q812.857 1532.34 812.857 1537.76 Q812.857 1543.34 809.385 1546.44 Q805.912 1549.52 799.593 1549.52 Q797.417 1549.52 795.148 1549.15 Q792.903 1548.78 790.496 1548.04 L790.496 1543.34 Q792.579 1544.47 794.801 1545.03 Q797.023 1545.58 799.5 1545.58 Q803.505 1545.58 805.843 1543.48 Q808.181 1541.37 808.181 1537.76 Q808.181 1534.15 805.843 1532.04 Q803.505 1529.94 799.5 1529.94 Q797.625 1529.94 795.75 1530.35 Q793.899 1530.77 791.954 1531.65 L791.954 1514.29 Z" fill="#000000" fill-rule="evenodd" fill-opacity="1" /><path clip-path="url(#clip630)" d="M1242.14 1517.37 Q1238.53 1517.37 1236.7 1520.93 Q1234.9 1524.47 1234.9 1531.6 Q1234.9 1538.71 1236.7 1542.27 Q1238.53 1545.82 1242.14 1545.82 Q1245.78 1545.82 1247.58 1542.27 Q1249.41 1538.71 1249.41 1531.6 Q1249.41 1524.47 1247.58 1520.93 Q1245.78 1517.37 1242.14 1517.37 M1242.14 1513.66 Q1247.95 1513.66 1251.01 1518.27 Q1254.09 1522.85 1254.09 1531.6 Q1254.09 1540.33 1251.01 1544.94 Q1247.95 1549.52 1242.14 1549.52 Q1236.33 1549.52 1233.25 1544.94 Q1230.2 1540.33 1230.2 1531.6 Q1230.2 1522.85 1233.25 1518.27 Q1236.33 1513.66 1242.14 1513.66 Z" fill="#000000" fill-rule="evenodd" fill-opacity="1" /><path clip-path="url(#clip630)" d="M1262.3 1542.97 L1267.19 1542.97 L1267.19 1548.85 L1262.3 1548.85 L1262.3 1542.97 Z" fill="#000000" fill-rule="evenodd" fill-opacity="1" /><path clip-path="url(#clip630)" d="M1277.42 1514.29 L1295.77 1514.29 L1295.77 1518.22 L1281.7 1518.22 L1281.7 1526.7 Q1282.72 1526.35 1283.74 1526.19 Q1284.76 1526 1285.77 1526 Q1291.56 1526 1294.94 1529.17 Q1298.32 1532.34 1298.32 1537.76 Q1298.32 1543.34 1294.85 1546.44 Q1291.38 1549.52 1285.06 1549.52 Q1282.88 1549.52 1280.61 1549.15 Q1278.37 1548.78 1275.96 1548.04 L1275.96 1543.34 Q1278.04 1544.47 1280.27 1545.03 Q1282.49 1545.58 1284.96 1545.58 Q1288.97 1545.58 1291.31 1543.48 Q1293.65 1541.37 1293.65 1537.76 Q1293.65 1534.15 1291.31 1532.04 Q1288.97 1529.94 1284.96 1529.94 Q1283.09 1529.94 1281.21 1530.35 Q1279.36 1530.77 1277.42 1531.65 L1277.42 1514.29 Z" fill="#000000" fill-rule="evenodd" fill-opacity="1" /><path clip-path="url(#clip630)" d="M1317.53 1517.37 Q1313.92 1517.37 1312.09 1520.93 Q1310.29 1524.47 1310.29 1531.6 Q1310.29 1538.71 1312.09 1542.27 Q1313.92 1545.82 1317.53 1545.82 Q1321.17 1545.82 1322.97 1542.27 Q1324.8 1538.71 1324.8 1531.6 Q1324.8 1524.47 1322.97 1520.93 Q1321.17 1517.37 1317.53 1517.37 M1317.53 1513.66 Q1323.34 1513.66 1326.4 1518.27 Q1329.48 1522.85 1329.48 1531.6 Q1329.48 1540.33 1326.4 1544.94 Q1323.34 1549.52 1317.53 1549.52 Q1311.72 1549.52 1308.65 1544.94 Q1305.59 1540.33 1305.59 1531.6 Q1305.59 1522.85 1308.65 1518.27 Q1311.72 1513.66 1317.53 1513.66 Z" fill="#000000" fill-rule="evenodd" fill-opacity="1" /><path clip-path="url(#clip630)" d="M1758.76 1517.37 Q1755.15 1517.37 1753.32 1520.93 Q1751.52 1524.47 1751.52 1531.6 Q1751.52 1538.71 1753.32 1542.27 Q1755.15 1545.82 1758.76 1545.82 Q1762.4 1545.82 1764.2 1542.27 Q1766.03 1538.71 1766.03 1531.6 Q1766.03 1524.47 1764.2 1520.93 Q1762.4 1517.37 1758.76 1517.37 M1758.76 1513.66 Q1764.57 1513.66 1767.63 1518.27 Q1770.71 1522.85 1770.71 1531.6 Q1770.71 1540.33 1767.63 1544.94 Q1764.57 1549.52 1758.76 1549.52 Q1752.95 1549.52 1749.87 1544.94 Q1746.82 1540.33 1746.82 1531.6 Q1746.82 1522.85 1749.87 1518.27 Q1752.95 1513.66 1758.76 1513.66 Z" fill="#000000" fill-rule="evenodd" fill-opacity="1" /><path clip-path="url(#clip630)" d="M1778.92 1542.97 L1783.81 1542.97 L1783.81 1548.85 L1778.92 1548.85 L1778.92 1542.97 Z" fill="#000000" fill-rule="evenodd" fill-opacity="1" /><path clip-path="url(#clip630)" d="M1792.81 1514.29 L1815.04 1514.29 L1815.04 1516.28 L1802.49 1548.85 L1797.6 1548.85 L1809.41 1518.22 L1792.81 1518.22 L1792.81 1514.29 Z" fill="#000000" fill-rule="evenodd" fill-opacity="1" /><path clip-path="url(#clip630)" d="M1824.2 1514.29 L1842.56 1514.29 L1842.56 1518.22 L1828.48 1518.22 L1828.48 1526.7 Q1829.5 1526.35 1830.52 1526.19 Q1831.54 1526 1832.56 1526 Q1838.35 1526 1841.73 1529.17 Q1845.1 1532.34 1845.1 1537.76 Q1845.1 1543.34 1841.63 1546.44 Q1838.16 1549.52 1831.84 1549.52 Q1829.66 1549.52 1827.4 1549.15 Q1825.15 1548.78 1822.74 1548.04 L1822.74 1543.34 Q1824.83 1544.47 1827.05 1545.03 Q1829.27 1545.58 1831.75 1545.58 Q1835.75 1545.58 1838.09 1543.48 Q1840.43 1541.37 1840.43 1537.76 Q1840.43 1534.15 1838.09 1532.04 Q1835.75 1529.94 1831.75 1529.94 Q1829.87 1529.94 1828 1530.35 Q1826.15 1530.77 1824.2 1531.65 L1824.2 1514.29 Z" fill="#000000" fill-rule="evenodd" fill-opacity="1" /><path clip-path="url(#clip630)" d="M2264.16 1544.91 L2271.8 1544.91 L2271.8 1518.55 L2263.49 1520.21 L2263.49 1515.95 L2271.75 1514.29 L2276.43 1514.29 L2276.43 1544.91 L2284.06 1544.91 L2284.06 1548.85 L2264.16 1548.85 L2264.16 1544.91 Z" fill="#000000" fill-rule="evenodd" fill-opacity="1" /><path clip-path="url(#clip630)" d="M2293.51 1542.97 L2298.39 1542.97 L2298.39 1548.85 L2293.51 1548.85 L2293.51 1542.97 Z" fill="#000000" fill-rule="evenodd" fill-opacity="1" /><path clip-path="url(#clip630)" d="M2318.58 1517.37 Q2314.97 1517.37 2313.14 1520.93 Q2311.33 1524.47 2311.33 1531.6 Q2311.33 1538.71 2313.14 1542.27 Q2314.97 1545.82 2318.58 1545.82 Q2322.21 1545.82 2324.02 1542.27 Q2325.85 1538.71 2325.85 1531.6 Q2325.85 1524.47 2324.02 1520.93 Q2322.21 1517.37 2318.58 1517.37 M2318.58 1513.66 Q2324.39 1513.66 2327.44 1518.27 Q2330.52 1522.85 2330.52 1531.6 Q2330.52 1540.33 2327.44 1544.94 Q2324.39 1549.52 2318.58 1549.52 Q2312.77 1549.52 2309.69 1544.94 Q2306.63 1540.33 2306.63 1531.6 Q2306.63 1522.85 2309.69 1518.27 Q2312.77 1513.66 2318.58 1513.66 Z" fill="#000000" fill-rule="evenodd" fill-opacity="1" /><path clip-path="url(#clip630)" d="M2348.74 1517.37 Q2345.13 1517.37 2343.3 1520.93 Q2341.49 1524.47 2341.49 1531.6 Q2341.49 1538.71 2343.3 1542.27 Q2345.13 1545.82 2348.74 1545.82 Q2352.37 1545.82 2354.18 1542.27 Q2356.01 1538.71 2356.01 1531.6 Q2356.01 1524.47 2354.18 1520.93 Q2352.37 1517.37 2348.74 1517.37 M2348.74 1513.66 Q2354.55 1513.66 2357.61 1518.27 Q2360.68 1522.85 2360.68 1531.6 Q2360.68 1540.33 2357.61 1544.94 Q2354.55 1549.52 2348.74 1549.52 Q2342.93 1549.52 2339.85 1544.94 Q2336.8 1540.33 2336.8 1531.6 Q2336.8 1522.85 2339.85 1518.27 Q2342.93 1513.66 2348.74 1513.66 Z" fill="#000000" fill-rule="evenodd" fill-opacity="1" /><polyline clip-path="url(#clip632)" style="stroke:#000000; stroke-linecap:butt; stroke-linejoin:round; stroke-width:2; stroke-opacity:0.1; fill:none" points="
  186.274,1445.72 2352.76,1445.72 
  "/>
<polyline clip-path="url(#clip632)" style="stroke:#000000; stroke-linecap:butt; stroke-linejoin:round; stroke-width:2; stroke-opacity:0.1; fill:none" points="
  186.274,1106.28 2352.76,1106.28 
  "/>
<polyline clip-path="url(#clip632)" style="stroke:#000000; stroke-linecap:butt; stroke-linejoin:round; stroke-width:2; stroke-opacity:0.1; fill:none" points="
  186.274,766.846 2352.76,766.846 
  "/>
<polyline clip-path="url(#clip632)" style="stroke:#000000; stroke-linecap:butt; stroke-linejoin:round; stroke-width:2; stroke-opacity:0.1; fill:none" points="
  186.274,427.411 2352.76,427.411 
  "/>
<polyline clip-path="url(#clip632)" style="stroke:#000000; stroke-linecap:butt; stroke-linejoin:round; stroke-width:2; stroke-opacity:0.1; fill:none" points="
  186.274,87.9763 2352.76,87.9763 
  "/>
<polyline clip-path="url(#clip630)" style="stroke:#000000; stroke-linecap:butt; stroke-linejoin:round; stroke-width:4; stroke-opacity:1; fill:none" points="
  186.274,1486.45 186.274,47.2441 
  "/>
<polyline clip-path="url(#clip630)" style="stroke:#000000; stroke-linecap:butt; stroke-linejoin:round; stroke-width:4; stroke-opacity:1; fill:none" points="
  186.274,1445.72 205.172,1445.72 
  "/>
<polyline clip-path="url(#clip630)" style="stroke:#000000; stroke-linecap:butt; stroke-linejoin:round; stroke-width:4; stroke-opacity:1; fill:none" points="
  186.274,1106.28 205.172,1106.28 
  "/>
<polyline clip-path="url(#clip630)" style="stroke:#000000; stroke-linecap:butt; stroke-linejoin:round; stroke-width:4; stroke-opacity:1; fill:none" points="
  186.274,766.846 205.172,766.846 
  "/>
<polyline clip-path="url(#clip630)" style="stroke:#000000; stroke-linecap:butt; stroke-linejoin:round; stroke-width:4; stroke-opacity:1; fill:none" points="
  186.274,427.411 205.172,427.411 
  "/>
<polyline clip-path="url(#clip630)" style="stroke:#000000; stroke-linecap:butt; stroke-linejoin:round; stroke-width:4; stroke-opacity:1; fill:none" points="
  186.274,87.9763 205.172,87.9763 
  "/>
<path clip-path="url(#clip630)" d="M62.9365 1431.51 Q59.3254 1431.51 57.4967 1435.08 Q55.6912 1438.62 55.6912 1445.75 Q55.6912 1452.86 57.4967 1456.42 Q59.3254 1459.96 62.9365 1459.96 Q66.5707 1459.96 68.3763 1456.42 Q70.205 1452.86 70.205 1445.75 Q70.205 1438.62 68.3763 1435.08 Q66.5707 1431.51 62.9365 1431.51 M62.9365 1427.81 Q68.7467 1427.81 71.8022 1432.42 Q74.8809 1437 74.8809 1445.75 Q74.8809 1454.48 71.8022 1459.08 Q68.7467 1463.67 62.9365 1463.67 Q57.1264 1463.67 54.0477 1459.08 Q50.9921 1454.48 50.9921 1445.75 Q50.9921 1437 54.0477 1432.42 Q57.1264 1427.81 62.9365 1427.81 Z" fill="#000000" fill-rule="evenodd" fill-opacity="1" /><path clip-path="url(#clip630)" d="M83.0984 1457.12 L87.9827 1457.12 L87.9827 1463 L83.0984 1463 L83.0984 1457.12 Z" fill="#000000" fill-rule="evenodd" fill-opacity="1" /><path clip-path="url(#clip630)" d="M108.168 1431.51 Q104.557 1431.51 102.728 1435.08 Q100.922 1438.62 100.922 1445.75 Q100.922 1452.86 102.728 1456.42 Q104.557 1459.96 108.168 1459.96 Q111.802 1459.96 113.608 1456.42 Q115.436 1452.86 115.436 1445.75 Q115.436 1438.62 113.608 1435.08 Q111.802 1431.51 108.168 1431.51 M108.168 1427.81 Q113.978 1427.81 117.033 1432.42 Q120.112 1437 120.112 1445.75 Q120.112 1454.48 117.033 1459.08 Q113.978 1463.67 108.168 1463.67 Q102.358 1463.67 99.2789 1459.08 Q96.2234 1454.48 96.2234 1445.75 Q96.2234 1437 99.2789 1432.42 Q102.358 1427.81 108.168 1427.81 Z" fill="#000000" fill-rule="evenodd" fill-opacity="1" /><path clip-path="url(#clip630)" d="M138.33 1431.51 Q134.719 1431.51 132.89 1435.08 Q131.084 1438.62 131.084 1445.75 Q131.084 1452.86 132.89 1456.42 Q134.719 1459.96 138.33 1459.96 Q141.964 1459.96 143.769 1456.42 Q145.598 1452.86 145.598 1445.75 Q145.598 1438.62 143.769 1435.08 Q141.964 1431.51 138.33 1431.51 M138.33 1427.81 Q144.14 1427.81 147.195 1432.42 Q150.274 1437 150.274 1445.75 Q150.274 1454.48 147.195 1459.08 Q144.14 1463.67 138.33 1463.67 Q132.519 1463.67 129.441 1459.08 Q126.385 1454.48 126.385 1445.75 Q126.385 1437 129.441 1432.42 Q132.519 1427.81 138.33 1427.81 Z" fill="#000000" fill-rule="evenodd" fill-opacity="1" /><path clip-path="url(#clip630)" d="M63.9319 1092.08 Q60.3208 1092.08 58.4921 1095.64 Q56.6865 1099.19 56.6865 1106.32 Q56.6865 1113.42 58.4921 1116.99 Q60.3208 1120.53 63.9319 1120.53 Q67.5661 1120.53 69.3717 1116.99 Q71.2004 1113.42 71.2004 1106.32 Q71.2004 1099.19 69.3717 1095.64 Q67.5661 1092.08 63.9319 1092.08 M63.9319 1088.38 Q69.742 1088.38 72.7976 1092.98 Q75.8763 1097.57 75.8763 1106.32 Q75.8763 1115.04 72.7976 1119.65 Q69.742 1124.23 63.9319 1124.23 Q58.1217 1124.23 55.043 1119.65 Q51.9875 1115.04 51.9875 1106.32 Q51.9875 1097.57 55.043 1092.98 Q58.1217 1088.38 63.9319 1088.38 Z" fill="#000000" fill-rule="evenodd" fill-opacity="1" /><path clip-path="url(#clip630)" d="M84.0938 1117.68 L88.978 1117.68 L88.978 1123.56 L84.0938 1123.56 L84.0938 1117.68 Z" fill="#000000" fill-rule="evenodd" fill-opacity="1" /><path clip-path="url(#clip630)" d="M103.191 1119.63 L119.51 1119.63 L119.51 1123.56 L97.566 1123.56 L97.566 1119.63 Q100.228 1116.87 104.811 1112.24 Q109.418 1107.59 110.598 1106.25 Q112.844 1103.72 113.723 1101.99 Q114.626 1100.23 114.626 1098.54 Q114.626 1095.78 112.682 1094.05 Q110.76 1092.31 107.658 1092.31 Q105.459 1092.31 103.006 1093.07 Q100.575 1093.84 97.7974 1095.39 L97.7974 1090.67 Q100.621 1089.53 103.075 1088.95 Q105.529 1088.38 107.566 1088.38 Q112.936 1088.38 116.131 1091.06 Q119.325 1093.75 119.325 1098.24 Q119.325 1100.37 118.515 1102.29 Q117.728 1104.19 115.621 1106.78 Q115.043 1107.45 111.941 1110.67 Q108.839 1113.86 103.191 1119.63 Z" fill="#000000" fill-rule="evenodd" fill-opacity="1" /><path clip-path="url(#clip630)" d="M129.371 1089 L147.728 1089 L147.728 1092.94 L133.654 1092.94 L133.654 1101.41 Q134.672 1101.06 135.691 1100.9 Q136.709 1100.71 137.728 1100.71 Q143.515 1100.71 146.894 1103.89 Q150.274 1107.06 150.274 1112.47 Q150.274 1118.05 146.802 1121.15 Q143.33 1124.23 137.01 1124.23 Q134.834 1124.23 132.566 1123.86 Q130.32 1123.49 127.913 1122.75 L127.913 1118.05 Q129.996 1119.19 132.219 1119.74 Q134.441 1120.3 136.918 1120.3 Q140.922 1120.3 143.26 1118.19 Q145.598 1116.08 145.598 1112.47 Q145.598 1108.86 143.26 1106.76 Q140.922 1104.65 136.918 1104.65 Q135.043 1104.65 133.168 1105.07 Q131.316 1105.48 129.371 1106.36 L129.371 1089 Z" fill="#000000" fill-rule="evenodd" fill-opacity="1" /><path clip-path="url(#clip630)" d="M62.9365 752.645 Q59.3254 752.645 57.4967 756.209 Q55.6912 759.751 55.6912 766.881 Q55.6912 773.987 57.4967 777.552 Q59.3254 781.094 62.9365 781.094 Q66.5707 781.094 68.3763 777.552 Q70.205 773.987 70.205 766.881 Q70.205 759.751 68.3763 756.209 Q66.5707 752.645 62.9365 752.645 M62.9365 748.941 Q68.7467 748.941 71.8022 753.547 Q74.8809 758.131 74.8809 766.881 Q74.8809 775.608 71.8022 780.214 Q68.7467 784.797 62.9365 784.797 Q57.1264 784.797 54.0477 780.214 Q50.9921 775.608 50.9921 766.881 Q50.9921 758.131 54.0477 753.547 Q57.1264 748.941 62.9365 748.941 Z" fill="#000000" fill-rule="evenodd" fill-opacity="1" /><path clip-path="url(#clip630)" d="M83.0984 778.246 L87.9827 778.246 L87.9827 784.126 L83.0984 784.126 L83.0984 778.246 Z" fill="#000000" fill-rule="evenodd" fill-opacity="1" /><path clip-path="url(#clip630)" d="M98.2141 749.566 L116.57 749.566 L116.57 753.501 L102.496 753.501 L102.496 761.973 Q103.515 761.626 104.534 761.464 Q105.552 761.279 106.571 761.279 Q112.358 761.279 115.737 764.45 Q119.117 767.621 119.117 773.038 Q119.117 778.617 115.645 781.719 Q112.172 784.797 105.853 784.797 Q103.677 784.797 101.409 784.427 Q99.1632 784.057 96.7558 783.316 L96.7558 778.617 Q98.8391 779.751 101.061 780.307 Q103.284 780.862 105.76 780.862 Q109.765 780.862 112.103 778.756 Q114.441 776.649 114.441 773.038 Q114.441 769.427 112.103 767.321 Q109.765 765.214 105.76 765.214 Q103.885 765.214 102.01 765.631 Q100.159 766.047 98.2141 766.927 L98.2141 749.566 Z" fill="#000000" fill-rule="evenodd" fill-opacity="1" /><path clip-path="url(#clip630)" d="M138.33 752.645 Q134.719 752.645 132.89 756.209 Q131.084 759.751 131.084 766.881 Q131.084 773.987 132.89 777.552 Q134.719 781.094 138.33 781.094 Q141.964 781.094 143.769 777.552 Q145.598 773.987 145.598 766.881 Q145.598 759.751 143.769 756.209 Q141.964 752.645 138.33 752.645 M138.33 748.941 Q144.14 748.941 147.195 753.547 Q150.274 758.131 150.274 766.881 Q150.274 775.608 147.195 780.214 Q144.14 784.797 138.33 784.797 Q132.519 784.797 129.441 780.214 Q126.385 775.608 126.385 766.881 Q126.385 758.131 129.441 753.547 Q132.519 748.941 138.33 748.941 Z" fill="#000000" fill-rule="evenodd" fill-opacity="1" /><path clip-path="url(#clip630)" d="M63.9319 413.21 Q60.3208 413.21 58.4921 416.775 Q56.6865 420.316 56.6865 427.446 Q56.6865 434.552 58.4921 438.117 Q60.3208 441.659 63.9319 441.659 Q67.5661 441.659 69.3717 438.117 Q71.2004 434.552 71.2004 427.446 Q71.2004 420.316 69.3717 416.775 Q67.5661 413.21 63.9319 413.21 M63.9319 409.506 Q69.742 409.506 72.7976 414.113 Q75.8763 418.696 75.8763 427.446 Q75.8763 436.173 72.7976 440.779 Q69.742 445.362 63.9319 445.362 Q58.1217 445.362 55.043 440.779 Q51.9875 436.173 51.9875 427.446 Q51.9875 418.696 55.043 414.113 Q58.1217 409.506 63.9319 409.506 Z" fill="#000000" fill-rule="evenodd" fill-opacity="1" /><path clip-path="url(#clip630)" d="M84.0938 438.812 L88.978 438.812 L88.978 444.691 L84.0938 444.691 L84.0938 438.812 Z" fill="#000000" fill-rule="evenodd" fill-opacity="1" /><path clip-path="url(#clip630)" d="M97.9826 410.131 L120.205 410.131 L120.205 412.122 L107.658 444.691 L102.774 444.691 L114.58 414.066 L97.9826 414.066 L97.9826 410.131 Z" fill="#000000" fill-rule="evenodd" fill-opacity="1" /><path clip-path="url(#clip630)" d="M129.371 410.131 L147.728 410.131 L147.728 414.066 L133.654 414.066 L133.654 422.538 Q134.672 422.191 135.691 422.029 Q136.709 421.844 137.728 421.844 Q143.515 421.844 146.894 425.015 Q150.274 428.187 150.274 433.603 Q150.274 439.182 146.802 442.284 Q143.33 445.362 137.01 445.362 Q134.834 445.362 132.566 444.992 Q130.32 444.622 127.913 443.881 L127.913 439.182 Q129.996 440.316 132.219 440.872 Q134.441 441.427 136.918 441.427 Q140.922 441.427 143.26 439.321 Q145.598 437.214 145.598 433.603 Q145.598 429.992 143.26 427.886 Q140.922 425.779 136.918 425.779 Q135.043 425.779 133.168 426.196 Q131.316 426.613 129.371 427.492 L129.371 410.131 Z" fill="#000000" fill-rule="evenodd" fill-opacity="1" /><path clip-path="url(#clip630)" d="M53.7467 101.321 L61.3856 101.321 L61.3856 74.9555 L53.0754 76.6222 L53.0754 72.3629 L61.3393 70.6963 L66.0152 70.6963 L66.0152 101.321 L73.654 101.321 L73.654 105.256 L53.7467 105.256 L53.7467 101.321 Z" fill="#000000" fill-rule="evenodd" fill-opacity="1" /><path clip-path="url(#clip630)" d="M83.0984 99.3767 L87.9827 99.3767 L87.9827 105.256 L83.0984 105.256 L83.0984 99.3767 Z" fill="#000000" fill-rule="evenodd" fill-opacity="1" /><path clip-path="url(#clip630)" d="M108.168 73.775 Q104.557 73.775 102.728 77.3398 Q100.922 80.8814 100.922 88.011 Q100.922 95.1174 102.728 98.6822 Q104.557 102.224 108.168 102.224 Q111.802 102.224 113.608 98.6822 Q115.436 95.1174 115.436 88.011 Q115.436 80.8814 113.608 77.3398 Q111.802 73.775 108.168 73.775 M108.168 70.0713 Q113.978 70.0713 117.033 74.6777 Q120.112 79.261 120.112 88.011 Q120.112 96.7378 117.033 101.344 Q113.978 105.928 108.168 105.928 Q102.358 105.928 99.2789 101.344 Q96.2234 96.7378 96.2234 88.011 Q96.2234 79.261 99.2789 74.6777 Q102.358 70.0713 108.168 70.0713 Z" fill="#000000" fill-rule="evenodd" fill-opacity="1" /><path clip-path="url(#clip630)" d="M138.33 73.775 Q134.719 73.775 132.89 77.3398 Q131.084 80.8814 131.084 88.011 Q131.084 95.1174 132.89 98.6822 Q134.719 102.224 138.33 102.224 Q141.964 102.224 143.769 98.6822 Q145.598 95.1174 145.598 88.011 Q145.598 80.8814 143.769 77.3398 Q141.964 73.775 138.33 73.775 M138.33 70.0713 Q144.14 70.0713 147.195 74.6777 Q150.274 79.261 150.274 88.011 Q150.274 96.7378 147.195 101.344 Q144.14 105.928 138.33 105.928 Q132.519 105.928 129.441 101.344 Q126.385 96.7378 126.385 88.011 Q126.385 79.261 129.441 74.6777 Q132.519 70.0713 138.33 70.0713 Z" fill="#000000" fill-rule="evenodd" fill-opacity="1" /><polyline clip-path="url(#clip632)" style="stroke:#009af9; stroke-linecap:butt; stroke-linejoin:round; stroke-width:4; stroke-opacity:1; fill:none" points="
  247.59,1445.72 268.234,1432.14 288.879,1418.56 309.524,1404.99 330.169,1391.42 350.814,1377.86 371.459,1364.3 392.104,1350.75 412.749,1337.21 433.394,1323.68 
  454.039,1310.17 474.684,1296.67 495.329,1283.18 515.974,1269.71 536.619,1256.25 557.264,1242.82 577.909,1229.4 598.554,1216.01 619.199,1202.64 639.844,1189.29 
  660.489,1175.97 681.134,1162.68 701.779,1149.42 722.424,1136.18 743.069,1122.98 763.713,1109.81 784.358,1096.67 805.003,1083.56 825.648,1070.5 846.293,1057.47 
  866.938,1044.48 887.583,1031.53 908.228,1018.62 928.873,1005.75 949.518,992.927 970.163,980.15 990.808,967.419 1011.45,954.736 1032.1,942.102 1052.74,929.519 
  1073.39,916.987 1094.03,904.508 1114.68,892.083 1135.32,879.714 1155.97,867.401 1176.61,855.146 1197.26,842.95 1217.9,830.814 1238.55,818.74 1259.19,806.728 
  1279.84,794.781 1300.48,782.898 1321.13,771.082 1341.77,759.333 1362.42,747.653 1383.06,736.043 1403.71,724.503 1424.35,713.036 1445,701.642 1465.64,690.322 
  1486.29,679.078 1506.93,667.911 1527.58,656.821 1548.22,645.811 1568.87,634.88 1589.51,624.03 1610.16,613.263 1630.8,602.579 1651.45,591.979 1672.09,581.464 
  1692.74,571.036 1713.38,560.695 1734.03,550.443 1754.67,540.281 1775.32,530.208 1795.96,520.228 1816.61,510.34 1837.25,500.545 1857.9,490.846 1878.54,481.241 
  1899.19,471.733 1919.83,462.322 1940.48,453.01 1961.12,443.797 1981.77,434.684 2002.41,425.673 2023.06,416.763 2043.7,407.956 2064.35,399.253 2084.99,390.655 
  2105.64,382.162 2126.28,373.775 2146.93,365.496 2167.57,357.325 2188.22,349.262 2208.86,341.309 2229.51,333.467 2250.15,325.736 2270.8,318.117 2291.44,310.61 
  
  "/>
<polyline clip-path="url(#clip632)" style="stroke:#e26f46; stroke-linecap:butt; stroke-linejoin:round; stroke-width:4; stroke-opacity:1; fill:none" points="
  247.59,87.9763 268.234,88.0442 288.879,88.2478 309.524,88.5872 330.169,89.0623 350.814,89.6731 371.459,90.4195 392.104,91.3014 412.749,92.3187 433.394,93.4714 
  454.039,94.7593 474.684,96.1823 495.329,97.7403 515.974,99.433 536.619,101.26 557.264,103.222 577.909,105.318 598.554,107.548 619.199,109.912 639.844,112.41 
  660.489,115.041 681.134,117.805 701.779,120.701 722.424,123.73 743.069,126.892 763.713,130.185 784.358,133.61 805.003,137.166 825.648,140.853 846.293,144.67 
  866.938,148.618 887.583,152.695 908.228,156.901 928.873,161.237 949.518,165.701 970.163,170.292 990.808,175.012 1011.45,179.858 1032.1,184.831 1052.74,189.93 
  1073.39,195.155 1094.03,200.505 1114.68,205.979 1135.32,211.577 1155.97,217.299 1176.61,223.143 1197.26,229.11 1217.9,235.198 1238.55,241.408 1259.19,247.738 
  1279.84,254.187 1300.48,260.756 1321.13,267.443 1341.77,274.249 1362.42,281.171 1383.06,288.21 1403.71,295.364 1424.35,302.634 1445,310.017 1465.64,317.515 
  1486.29,325.125 1506.93,332.847 1527.58,340.681 1548.22,348.625 1568.87,356.679 1589.51,364.841 1610.16,373.112 1630.8,381.49 1651.45,389.975 1672.09,398.565 
  1692.74,407.259 1713.38,416.058 1734.03,424.959 1754.67,433.963 1775.32,443.068 1795.96,452.273 1816.61,461.577 1837.25,470.98 1857.9,480.48 1878.54,490.077 
  1899.19,499.77 1919.83,509.556 1940.48,519.437 1961.12,529.41 1981.77,539.475 2002.41,549.631 2023.06,559.876 2043.7,570.209 2064.35,580.63 2084.99,591.138 
  2105.64,601.731 2126.28,612.409 2146.93,623.17 2167.57,634.013 2188.22,644.937 2208.86,655.942 2229.51,667.025 2250.15,678.186 2270.8,689.424 2291.44,700.738 
  
  "/>
<path clip-path="url(#clip630)" d="
M1987.39 250.738 L2280.54 250.738 L2280.54 95.2176 L1987.39 95.2176  Z
  " fill="#ffffff" fill-rule="evenodd" fill-opacity="1"/>
<polyline clip-path="url(#clip630)" style="stroke:#000000; stroke-linecap:butt; stroke-linejoin:round; stroke-width:4; stroke-opacity:1; fill:none" points="
  1987.39,250.738 2280.54,250.738 2280.54,95.2176 1987.39,95.2176 1987.39,250.738 
  "/>
<polyline clip-path="url(#clip630)" style="stroke:#009af9; stroke-linecap:butt; stroke-linejoin:round; stroke-width:4; stroke-opacity:1; fill:none" points="
  2011.46,147.058 2155.89,147.058 
  "/>
<path clip-path="url(#clip630)" d="M2193.81 166.745 Q2192 171.375 2190.29 172.787 Q2188.58 174.199 2185.71 174.199 L2182.3 174.199 L2182.3 170.634 L2184.8 170.634 Q2186.56 170.634 2187.53 169.8 Q2188.51 168.967 2189.69 165.865 L2190.45 163.921 L2179.97 138.412 L2184.48 138.412 L2192.58 158.689 L2200.68 138.412 L2205.2 138.412 L2193.81 166.745 Z" fill="#000000" fill-rule="evenodd" fill-opacity="1" /><path clip-path="url(#clip630)" d="M2212.49 160.402 L2220.13 160.402 L2220.13 134.037 L2211.82 135.703 L2211.82 131.444 L2220.08 129.778 L2224.76 129.778 L2224.76 160.402 L2232.4 160.402 L2232.4 164.338 L2212.49 164.338 L2212.49 160.402 Z" fill="#000000" fill-rule="evenodd" fill-opacity="1" /><polyline clip-path="url(#clip630)" style="stroke:#e26f46; stroke-linecap:butt; stroke-linejoin:round; stroke-width:4; stroke-opacity:1; fill:none" points="
  2011.46,198.898 2155.89,198.898 
  "/>
<path clip-path="url(#clip630)" d="M2193.81 218.585 Q2192 223.215 2190.29 224.627 Q2188.58 226.039 2185.71 226.039 L2182.3 226.039 L2182.3 222.474 L2184.8 222.474 Q2186.56 222.474 2187.53 221.64 Q2188.51 220.807 2189.69 217.705 L2190.45 215.761 L2179.97 190.252 L2184.48 190.252 L2192.58 210.529 L2200.68 190.252 L2205.2 190.252 L2193.81 218.585 Z" fill="#000000" fill-rule="evenodd" fill-opacity="1" /><path clip-path="url(#clip630)" d="M2215.71 212.242 L2232.03 212.242 L2232.03 216.178 L2210.08 216.178 L2210.08 212.242 Q2212.74 209.488 2217.33 204.858 Q2221.93 200.205 2223.11 198.863 Q2225.36 196.34 2226.24 194.604 Q2227.14 192.844 2227.14 191.155 Q2227.14 188.4 2225.2 186.664 Q2223.28 184.928 2220.17 184.928 Q2217.97 184.928 2215.52 185.692 Q2213.09 186.455 2210.31 188.006 L2210.31 183.284 Q2213.14 182.15 2215.59 181.571 Q2218.04 180.993 2220.08 180.993 Q2225.45 180.993 2228.65 183.678 Q2231.84 186.363 2231.84 190.854 Q2231.84 192.983 2231.03 194.905 Q2230.24 196.803 2228.14 199.395 Q2227.56 200.067 2224.46 203.284 Q2221.35 206.479 2215.71 212.242 Z" fill="#000000" fill-rule="evenodd" fill-opacity="1" /></svg>
